<mxfile host="app.diagrams.net" modified="2023-11-05T23:14:37.546Z" agent="Mozilla/5.0 (Windows NT 10.0; Win64; x64) AppleWebKit/537.36 (KHTML, like Gecko) Chrome/116.0.0.0 Safari/537.36 OPR/102.0.0.0" etag="0vkyPGeevWLxRqOhHyox" version="22.0.8" type="github">
  <diagram name="Page-1" id="RXTj_LJkgAL2YhaXDoyc">
    <mxGraphModel dx="1602" dy="811" grid="1" gridSize="10" guides="1" tooltips="1" connect="1" arrows="1" fold="1" page="1" pageScale="1" pageWidth="1169" pageHeight="827" math="0" shadow="0">
      <root>
        <mxCell id="0" />
        <mxCell id="1" parent="0" />
        <mxCell id="3xqAiesTPMvwW2uzPzp6-1" value="App" style="rounded=0;labelBorderColor=none;labelBackgroundColor=none;fontColor=default;whiteSpace=wrap;html=1;align=center;" vertex="1" parent="1">
          <mxGeometry x="100" y="260" width="80" height="60" as="geometry" />
        </mxCell>
        <mxCell id="3xqAiesTPMvwW2uzPzp6-20" value="" style="group" vertex="1" connectable="0" parent="1">
          <mxGeometry x="250" y="140" width="200" height="320" as="geometry" />
        </mxCell>
        <mxCell id="3xqAiesTPMvwW2uzPzp6-13" value="WEBSITE" style="swimlane;whiteSpace=wrap;html=1;container=0;" vertex="1" parent="3xqAiesTPMvwW2uzPzp6-20">
          <mxGeometry width="200" height="320" as="geometry">
            <mxRectangle x="250" y="150" width="90" height="30" as="alternateBounds" />
          </mxGeometry>
        </mxCell>
        <mxCell id="3xqAiesTPMvwW2uzPzp6-18" value="" style="group" vertex="1" connectable="0" parent="3xqAiesTPMvwW2uzPzp6-20">
          <mxGeometry x="70" y="30" width="60" height="250" as="geometry" />
        </mxCell>
        <mxCell id="3xqAiesTPMvwW2uzPzp6-21" style="edgeStyle=orthogonalEdgeStyle;rounded=0;orthogonalLoop=1;jettySize=auto;html=1;exitX=0.5;exitY=1;exitDx=0;exitDy=0;entryX=0.5;entryY=0;entryDx=0;entryDy=0;" edge="1" parent="3xqAiesTPMvwW2uzPzp6-18" source="3xqAiesTPMvwW2uzPzp6-7" target="3xqAiesTPMvwW2uzPzp6-8">
          <mxGeometry relative="1" as="geometry" />
        </mxCell>
        <mxCell id="3xqAiesTPMvwW2uzPzp6-7" value="Navbar" style="rounded=0;whiteSpace=wrap;html=1;" vertex="1" parent="3xqAiesTPMvwW2uzPzp6-18">
          <mxGeometry y="10" width="60" height="30" as="geometry" />
        </mxCell>
        <mxCell id="3xqAiesTPMvwW2uzPzp6-22" style="edgeStyle=orthogonalEdgeStyle;rounded=0;orthogonalLoop=1;jettySize=auto;html=1;exitX=0.5;exitY=1;exitDx=0;exitDy=0;" edge="1" parent="3xqAiesTPMvwW2uzPzp6-18" source="3xqAiesTPMvwW2uzPzp6-8">
          <mxGeometry relative="1" as="geometry">
            <mxPoint x="29.931034482758605" y="110" as="targetPoint" />
          </mxGeometry>
        </mxCell>
        <mxCell id="3xqAiesTPMvwW2uzPzp6-8" value="Hero" style="rounded=0;whiteSpace=wrap;html=1;" vertex="1" parent="3xqAiesTPMvwW2uzPzp6-18">
          <mxGeometry y="60" width="60" height="30" as="geometry" />
        </mxCell>
        <mxCell id="3xqAiesTPMvwW2uzPzp6-23" style="edgeStyle=orthogonalEdgeStyle;rounded=0;orthogonalLoop=1;jettySize=auto;html=1;exitX=0.5;exitY=1;exitDx=0;exitDy=0;entryX=0.5;entryY=0;entryDx=0;entryDy=0;" edge="1" parent="3xqAiesTPMvwW2uzPzp6-18" source="3xqAiesTPMvwW2uzPzp6-9" target="3xqAiesTPMvwW2uzPzp6-10">
          <mxGeometry relative="1" as="geometry" />
        </mxCell>
        <mxCell id="3xqAiesTPMvwW2uzPzp6-9" value="Recipes" style="rounded=0;whiteSpace=wrap;html=1;" vertex="1" parent="3xqAiesTPMvwW2uzPzp6-18">
          <mxGeometry y="110" width="60" height="30" as="geometry" />
        </mxCell>
        <mxCell id="3xqAiesTPMvwW2uzPzp6-24" style="edgeStyle=orthogonalEdgeStyle;rounded=0;orthogonalLoop=1;jettySize=auto;html=1;exitX=0.5;exitY=1;exitDx=0;exitDy=0;" edge="1" parent="3xqAiesTPMvwW2uzPzp6-18" source="3xqAiesTPMvwW2uzPzp6-10">
          <mxGeometry relative="1" as="geometry">
            <mxPoint x="29.931034482758605" y="220" as="targetPoint" />
          </mxGeometry>
        </mxCell>
        <mxCell id="3xqAiesTPMvwW2uzPzp6-40" style="edgeStyle=orthogonalEdgeStyle;rounded=0;orthogonalLoop=1;jettySize=auto;html=1;" edge="1" parent="3xqAiesTPMvwW2uzPzp6-18" source="3xqAiesTPMvwW2uzPzp6-10">
          <mxGeometry relative="1" as="geometry">
            <mxPoint x="-50" y="180" as="targetPoint" />
          </mxGeometry>
        </mxCell>
        <mxCell id="3xqAiesTPMvwW2uzPzp6-10" value="Images/&lt;br&gt;Videos?" style="rounded=0;whiteSpace=wrap;html=1;" vertex="1" parent="3xqAiesTPMvwW2uzPzp6-18">
          <mxGeometry y="160" width="60" height="40" as="geometry" />
        </mxCell>
        <mxCell id="3xqAiesTPMvwW2uzPzp6-14" value="Contact" style="rounded=0;whiteSpace=wrap;html=1;" vertex="1" parent="3xqAiesTPMvwW2uzPzp6-18">
          <mxGeometry y="220" width="60" height="40" as="geometry" />
        </mxCell>
        <mxCell id="3xqAiesTPMvwW2uzPzp6-29" value="" style="endArrow=classic;html=1;rounded=0;exitX=1;exitY=0.5;exitDx=0;exitDy=0;entryX=0;entryY=0.5;entryDx=0;entryDy=0;" edge="1" parent="1" source="3xqAiesTPMvwW2uzPzp6-1" target="3xqAiesTPMvwW2uzPzp6-7">
          <mxGeometry relative="1" as="geometry">
            <mxPoint x="220" y="300" as="sourcePoint" />
            <mxPoint x="320" y="300" as="targetPoint" />
          </mxGeometry>
        </mxCell>
        <mxCell id="3xqAiesTPMvwW2uzPzp6-30" value="Component" style="edgeLabel;resizable=0;html=1;align=center;verticalAlign=middle;" connectable="0" vertex="1" parent="3xqAiesTPMvwW2uzPzp6-29">
          <mxGeometry relative="1" as="geometry" />
        </mxCell>
        <mxCell id="3xqAiesTPMvwW2uzPzp6-32" value="" style="endArrow=classic;html=1;rounded=0;entryX=0;entryY=0.5;entryDx=0;entryDy=0;exitX=1;exitY=0.5;exitDx=0;exitDy=0;" edge="1" parent="1" source="3xqAiesTPMvwW2uzPzp6-1" target="3xqAiesTPMvwW2uzPzp6-8">
          <mxGeometry relative="1" as="geometry">
            <mxPoint x="180" y="290" as="sourcePoint" />
            <mxPoint x="330" y="205" as="targetPoint" />
          </mxGeometry>
        </mxCell>
        <mxCell id="3xqAiesTPMvwW2uzPzp6-33" value="Component" style="edgeLabel;resizable=0;html=1;align=center;verticalAlign=middle;" connectable="0" vertex="1" parent="3xqAiesTPMvwW2uzPzp6-32">
          <mxGeometry relative="1" as="geometry" />
        </mxCell>
        <mxCell id="3xqAiesTPMvwW2uzPzp6-34" value="" style="endArrow=classic;html=1;rounded=0;entryX=0;entryY=0.5;entryDx=0;entryDy=0;exitX=1;exitY=0.5;exitDx=0;exitDy=0;" edge="1" parent="1" source="3xqAiesTPMvwW2uzPzp6-1" target="3xqAiesTPMvwW2uzPzp6-9">
          <mxGeometry relative="1" as="geometry">
            <mxPoint x="180" y="285" as="sourcePoint" />
            <mxPoint x="320" y="240" as="targetPoint" />
          </mxGeometry>
        </mxCell>
        <mxCell id="3xqAiesTPMvwW2uzPzp6-35" value="Component" style="edgeLabel;resizable=0;html=1;align=center;verticalAlign=middle;" connectable="0" vertex="1" parent="3xqAiesTPMvwW2uzPzp6-34">
          <mxGeometry relative="1" as="geometry" />
        </mxCell>
        <mxCell id="3xqAiesTPMvwW2uzPzp6-36" value="" style="endArrow=classic;html=1;rounded=0;entryX=0;entryY=0.5;entryDx=0;entryDy=0;exitX=1;exitY=0.5;exitDx=0;exitDy=0;" edge="1" parent="1" source="3xqAiesTPMvwW2uzPzp6-1" target="3xqAiesTPMvwW2uzPzp6-10">
          <mxGeometry relative="1" as="geometry">
            <mxPoint x="180" y="290" as="sourcePoint" />
            <mxPoint x="330" y="305" as="targetPoint" />
          </mxGeometry>
        </mxCell>
        <mxCell id="3xqAiesTPMvwW2uzPzp6-37" value="Component" style="edgeLabel;resizable=0;html=1;align=center;verticalAlign=middle;" connectable="0" vertex="1" parent="3xqAiesTPMvwW2uzPzp6-36">
          <mxGeometry relative="1" as="geometry" />
        </mxCell>
        <mxCell id="3xqAiesTPMvwW2uzPzp6-38" value="" style="endArrow=classic;html=1;rounded=0;entryX=0;entryY=0.5;entryDx=0;entryDy=0;exitX=1;exitY=0.5;exitDx=0;exitDy=0;" edge="1" parent="1" source="3xqAiesTPMvwW2uzPzp6-1" target="3xqAiesTPMvwW2uzPzp6-14">
          <mxGeometry relative="1" as="geometry">
            <mxPoint x="190" y="300" as="sourcePoint" />
            <mxPoint x="330" y="360" as="targetPoint" />
          </mxGeometry>
        </mxCell>
        <mxCell id="3xqAiesTPMvwW2uzPzp6-39" value="Component" style="edgeLabel;resizable=0;html=1;align=center;verticalAlign=middle;" connectable="0" vertex="1" parent="3xqAiesTPMvwW2uzPzp6-38">
          <mxGeometry relative="1" as="geometry" />
        </mxCell>
        <mxCell id="3xqAiesTPMvwW2uzPzp6-42" style="edgeStyle=orthogonalEdgeStyle;rounded=0;orthogonalLoop=1;jettySize=auto;html=1;exitX=1;exitY=0.5;exitDx=0;exitDy=0;exitPerimeter=0;" edge="1" parent="1" source="3xqAiesTPMvwW2uzPzp6-41">
          <mxGeometry relative="1" as="geometry">
            <mxPoint x="250" y="399.8275862068966" as="targetPoint" />
          </mxGeometry>
        </mxCell>
        <mxCell id="3xqAiesTPMvwW2uzPzp6-43" style="edgeStyle=orthogonalEdgeStyle;rounded=0;orthogonalLoop=1;jettySize=auto;html=1;exitX=0.5;exitY=0;exitDx=0;exitDy=0;exitPerimeter=0;entryX=0.5;entryY=1;entryDx=0;entryDy=0;" edge="1" parent="1" source="3xqAiesTPMvwW2uzPzp6-41" target="3xqAiesTPMvwW2uzPzp6-1">
          <mxGeometry relative="1" as="geometry" />
        </mxCell>
        <mxCell id="3xqAiesTPMvwW2uzPzp6-41" value="index" style="shape=cylinder3;whiteSpace=wrap;html=1;boundedLbl=1;backgroundOutline=1;size=15;" vertex="1" parent="1">
          <mxGeometry x="110" y="360" width="60" height="80" as="geometry" />
        </mxCell>
        <mxCell id="3xqAiesTPMvwW2uzPzp6-52" value="" style="html=1;shadow=0;dashed=0;shape=mxgraph.bootstrap.rrect;rSize=5;html=1;whiteSpace=wrap;verticalAlign=bottom;align=left;spacing=20;spacingBottom=130;fontSize=14;fillColor=#eeeeee;strokeColor=#36393d;" vertex="1" parent="1">
          <mxGeometry x="660" y="120" width="250" height="450" as="geometry" />
        </mxCell>
        <mxCell id="3xqAiesTPMvwW2uzPzp6-53" value="Image cap" style="html=1;shadow=0;dashed=0;shape=mxgraph.bootstrap.topButton;rSize=5;perimeter=none;whiteSpace=wrap;fillColor=#eeeeee;strokeColor=#36393d;resizeWidth=1;fontSize=18;" vertex="1" parent="3xqAiesTPMvwW2uzPzp6-52">
          <mxGeometry width="250" height="180" relative="1" as="geometry" />
        </mxCell>
        <mxCell id="3xqAiesTPMvwW2uzPzp6-54" value="&lt;b&gt;&lt;font style=&quot;font-size: 20px&quot;&gt;Card title&lt;/font&gt;&lt;/b&gt;&lt;br style=&quot;font-size: 14px&quot;&gt;&lt;br style=&quot;font-size: 14px&quot;&gt;Some quick example text to build on the card title and make up the bulk of the card&#39;s content." style="perimeter=none;html=1;whiteSpace=wrap;fillColor=none;strokeColor=none;resizeWidth=1;verticalAlign=top;align=left;spacing=20;spacingTop=-10;fontSize=14;" vertex="1" parent="3xqAiesTPMvwW2uzPzp6-52">
          <mxGeometry width="250" height="120" relative="1" as="geometry">
            <mxPoint y="180" as="offset" />
          </mxGeometry>
        </mxCell>
        <mxCell id="3xqAiesTPMvwW2uzPzp6-56" value="Made by @user" style="strokeColor=inherit;fillColor=inherit;gradientColor=inherit;fontColor=inherit;html=1;shadow=0;dashed=0;perimeter=none;fontSize=14;whiteSpace=wrap;resizeWidth=1;align=left;spacing=10;" vertex="1" parent="3xqAiesTPMvwW2uzPzp6-52">
          <mxGeometry width="250" height="30" relative="1" as="geometry">
            <mxPoint y="330" as="offset" />
          </mxGeometry>
        </mxCell>
        <mxCell id="3xqAiesTPMvwW2uzPzp6-57" value="Posted Date &amp;amp; Views" style="strokeColor=inherit;fillColor=inherit;gradientColor=inherit;fontColor=inherit;html=1;shadow=0;dashed=0;shape=mxgraph.bootstrap.bottomButton;rSize=5;perimeter=none;fontSize=14;whiteSpace=wrap;resizeWidth=1;resizeHeight=0;align=left;spacing=10;" vertex="1" parent="3xqAiesTPMvwW2uzPzp6-52">
          <mxGeometry width="250" height="30" relative="1" as="geometry">
            <mxPoint y="360" as="offset" />
          </mxGeometry>
        </mxCell>
        <mxCell id="3xqAiesTPMvwW2uzPzp6-58" value="Card link" style="html=1;shadow=0;dashed=0;shape=mxgraph.bootstrap.rrect;rSize=5;perimeter=none;whiteSpace=wrap;fillColor=none;strokeColor=none;fontColor=#0085FC;resizeWidth=1;fontSize=14;align=center;" vertex="1" parent="3xqAiesTPMvwW2uzPzp6-52">
          <mxGeometry y="1" width="80" height="40" relative="1" as="geometry">
            <mxPoint x="10" y="-50" as="offset" />
          </mxGeometry>
        </mxCell>
        <mxCell id="3xqAiesTPMvwW2uzPzp6-59" value="Another link" style="html=1;shadow=0;dashed=0;shape=mxgraph.bootstrap.rrect;rSize=5;perimeter=none;whiteSpace=wrap;fillColor=none;strokeColor=none;fontColor=#0085FC;resizeWidth=1;fontSize=14;align=center;" vertex="1" parent="3xqAiesTPMvwW2uzPzp6-52">
          <mxGeometry y="1" width="100" height="40" relative="1" as="geometry">
            <mxPoint x="100" y="-50" as="offset" />
          </mxGeometry>
        </mxCell>
        <mxCell id="3xqAiesTPMvwW2uzPzp6-60" value="&lt;font style=&quot;font-size: 12px;&quot;&gt;Food Type&lt;/font&gt;" style="html=1;shadow=0;dashed=0;shape=mxgraph.bootstrap.rrect;rSize=5;strokeColor=none;strokeWidth=1;fillColor=#F8F9FA;fontColor=#000000;whiteSpace=wrap;align=left;verticalAlign=middle;spacingLeft=0;fontStyle=1;fontSize=14;spacing=5;" vertex="1" parent="3xqAiesTPMvwW2uzPzp6-52">
          <mxGeometry x="10" y="300" width="70" height="20" as="geometry" />
        </mxCell>
        <mxCell id="3xqAiesTPMvwW2uzPzp6-61" value="&lt;font style=&quot;font-size: 12px;&quot;&gt;Region&lt;/font&gt;" style="html=1;shadow=0;dashed=0;shape=mxgraph.bootstrap.rrect;rSize=5;strokeColor=none;strokeWidth=1;fillColor=#F8F9FA;fontColor=#000000;whiteSpace=wrap;align=left;verticalAlign=middle;spacingLeft=0;fontStyle=1;fontSize=14;spacing=5;" vertex="1" parent="3xqAiesTPMvwW2uzPzp6-52">
          <mxGeometry x="90" y="300" width="50" height="20" as="geometry" />
        </mxCell>
        <mxCell id="3xqAiesTPMvwW2uzPzp6-64" value="" style="shape=image;html=1;verticalAlign=top;verticalLabelPosition=bottom;labelBackgroundColor=#ffffff;imageAspect=0;aspect=fixed;image=https://cdn4.iconfinder.com/data/icons/ionicons/512/icon-ios7-heart-128.png" vertex="1" parent="3xqAiesTPMvwW2uzPzp6-52">
          <mxGeometry x="210" y="193" width="28" height="28" as="geometry" />
        </mxCell>
      </root>
    </mxGraphModel>
  </diagram>
</mxfile>
